<svg xmlns="http://www.w3.org/2000/svg" xmlns:xlink="http://www.w3.org/1999/xlink" viewBox="0 0 479.8 203.3"><defs><style>.cls-1{fill:none;}.cls-10,.cls-2{isolation:isolate;}.cls-3{clip-path:url(#clip-path);}.cls-4{fill:#faf2e1;}.cls-5{fill:#999899;}.cls-6{mix-blend-mode:multiply;}.cls-7{fill:#f53d62;}.cls-8{fill:#faf21b;}.cls-9{fill:#1ef2e1;}.cls-10{font-size:55px;fill:#2d2d2d;font-family:MicrosoftYaHei-Bold, Microsoft YaHei;font-weight:700;}.cls-11{letter-spacing:-0.03em;}</style><clipPath id="clip-path" transform="translate(19 22.3)"><rect class="cls-1" width="460.8" height="151.2" rx="35" ry="35"/></clipPath></defs><title>Welcome_back_svg</title><g class="cls-2"><g id="圖層_3" data-name="圖層 3"><g class="cls-3"><g id="bg"><path class="cls-4" d="M35,150.1a34.1,34.1,0,0,1-34-34v-81a34.1,34.1,0,0,1,34-34H425.8a34.1,34.1,0,0,1,34,34v81a34.1,34.1,0,0,1-34,34Z" transform="translate(19 22.3)"/><path class="cls-5" d="M425.8,2.1a33,33,0,0,1,33,33v81a33,33,0,0,1-33,33H35a33,33,0,0,1-33-33v-81a33,33,0,0,1,33-33H425.8m0-2H35a35.1,35.1,0,0,0-35,35v81a35.1,35.1,0,0,0,35,35H425.8a35.1,35.1,0,0,0,35-35v-81a35.1,35.1,0,0,0-35-35Z" transform="translate(19 22.3)"/></g><g id="red_circle" data-name="red circle" class="cls-6"><circle class="cls-7" cx="51.3" cy="161.5" r="41.8"/><circle class="cls-7" cx="140.7" cy="142.2" r="18.2"/><circle class="cls-7" cx="176" cy="102.8" r="22.4"/><circle class="cls-7" cx="183.5" cy="171.5" r="18"/><circle class="cls-7" cx="223.8" cy="119.5" r="5.7"/><circle class="cls-7" cx="167" cy="31.4" r="5.7"/><circle class="cls-7" cx="105.9" cy="73.8" r="40.6"/></g><g id="yellow_circle" data-name="yellow circle" class="cls-6"><circle class="cls-8" cx="42.4" cy="41.1" r="36.2"/><circle class="cls-8" cx="102.1" cy="133" r="27.6"/><circle class="cls-8" cx="155.1" cy="78.1" r="22.3"/><circle class="cls-8" cx="159.1" cy="127.7" r="9.8"/><circle class="cls-8" cx="159.8" cy="170.2" r="21.1"/><circle class="cls-8" cx="199.7" cy="135.9" r="14"/><circle class="cls-8" cx="226.6" cy="164.4" r="3.8"/></g><g id="blue_circle" data-name="blue circle" class="cls-6"><circle class="cls-9" cx="45.4" cy="102.5" r="45.4"/><circle class="cls-9" cx="91.6" cy="30.8" r="30.8"/><circle class="cls-9" cx="150.4" cy="53.6" r="14.1"/><circle class="cls-9" cx="140.4" cy="111.6" r="21.4"/><circle class="cls-9" cx="113.3" cy="169.4" r="31.9"/><circle class="cls-9" cx="173" cy="140.4" r="18.6"/><circle class="cls-9" cx="218.3" cy="159.9" r="8.1"/><circle class="cls-9" cx="197.2" cy="91" r="10.6"/></g><g id="bg_side"><path class="cls-5" d="M425.8,2.1a33,33,0,0,1,33,33v81a33,33,0,0,1-33,33H35a33,33,0,0,1-33-33v-81a33,33,0,0,1,33-33H425.8m0-2H35a35.1,35.1,0,0,0-35,35v81a35.1,35.1,0,0,0,35,35H425.8a35.1,35.1,0,0,0,35-35v-81a35.1,35.1,0,0,0-35-35Z" transform="translate(19 22.3)"/></g><g id="logout"><text class="cls-10" transform="translate(214.47 87.29) scale(0.88 1)"><tspan class="cls-11">W</tspan><tspan x="57.63" y="0">elcome</tspan><tspan x="125.92" y="54">Back</tspan></text></g></g></g></g></svg>